# xmcd
#
# Track frame offsets:
#	150
#	32059
#	53806
#	71714
#	81627
#	105780
#	121774
#	136708
#	152946
#	171769
#
# Disc length: 2434 seconds
#
# Revision: 1
# Processed by: cddbd v1.5.2PL0 Copyright (c) Steve Scherf et al.
# Submitted via: audiograbber 1.83.01
#
DISCID=7d09800a
DTITLE=Reno Brandoni - Yelda
DYEAR=2006
DGENRE=Blues
TTITLE0=Yelda
TTITLE1=Malena
TTITLE2=Non photo reposare
TTITLE3=Sfango
TTITLE4=Zocalhera
TTITLE5=A Sa'
TTITLE6=Pacifico
TTITLE7=La stanza dopo l'amore
TTITLE8=Mississipi blues
TTITLE9=A Sa' (reprise)
EXTD=
EXTT0=
EXTT1=
EXTT2=
EXTT3=
EXTT4=
EXTT5=
EXTT6=
EXTT7=
EXTT8=
EXTT9=
PLAYORDER=
